<svg xmlns="http://www.w3.org/2000/svg" viewBox="0 0 1240 720" width="1240" height="720" role="img">
<style>
  text { font-family: ui-monospace,'SF Mono',Menlo,Consolas,monospace; }
  .t { fill: #E8E2D3; }
  .m { fill: #B4AEA1; }
  @keyframes pulse { 0%,100% { opacity:.35 } 50% { opacity:1 } }
  @keyframes drift { 0% { transform: translateY(0) } 50% { transform: translateY(-6px) } 100% { transform: translateY(0) } }
  @keyframes dash { to { stroke-dashoffset: -28 } }
  @media (prefers-reduced-motion: reduce) { * { animation: none !important } }
  
</style>
<defs>
  <linearGradient id="bg" x1="0" y1="0" x2="1" y2="1">
    <stop offset="0" stop-color="#0d1410"/><stop offset="1" stop-color="#070a08"/>
  </linearGradient>
  <linearGradient id="glow" x1="0" y1="0" x2="0" y2="1">
    <stop offset="0" stop-color="#7ED957" stop-opacity=".22"/><stop offset="1" stop-color="#7ED957" stop-opacity="0"/>
  </linearGradient>
</defs>
<rect width="1240" height="720" fill="url(#bg)"/>
<rect width="1240" height="260" fill="url(#glow)"/>
<rect x="66" y="54" width="1120" height="628" fill="#000000" rx="4" opacity=".45"/>
<rect x="60" y="46" width="1120" height="628" fill="#3A4148" rx="3"/>
<rect x="61" y="47" width="1118" height="626" fill="#171B20" rx="3"/>
<text x="78" y="68" font-size="15" text-anchor="start" font-weight="700" class="t">SIMPLE SKIN</text>
<text x="210" y="68" font-size="12" text-anchor="start" font-weight="400" class="m">Players on this server</text>
<line x1="78" y1="82" x2="1162" y2="82" stroke="#3A4148" stroke-width="1"/>
<text x="1162" y="68" font-size="11.5" text-anchor="end" font-weight="400" class="t" fill="#83C65A">Visibility: Upload to profile</text>
<rect x="78" y="92" width="63.800000000000004" height="24" fill="#3A4148" rx="0"/>
<rect x="79" y="93" width="61.800000000000004" height="22" fill="#22282E" rx="0"/>
<text x="109.9" y="108.0" font-size="12" text-anchor="middle" font-weight="400" class="t" fill="#E8E2D3">History</text>
<rect x="149.8" y="92" width="93.4" height="24" fill="#3A4148" rx="0"/>
<rect x="150.8" y="93" width="91.4" height="22" fill="#22282E" rx="0"/>
<text x="196.5" y="108.0" font-size="12" text-anchor="middle" font-weight="400" class="t" fill="#E8E2D3">Change Skin</text>
<rect x="251.20000000000002" y="92" width="86.0" height="24" fill="#D98555" rx="0"/>
<rect x="252.20000000000002" y="93" width="84.0" height="22" fill="#8E4E32" rx="0"/>
<text x="294.20000000000005" y="108.0" font-size="12" text-anchor="middle" font-weight="400" class="t" fill="#E8E2D3">Steal Skin</text>
<rect x="970" y="92" width="90" height="24" fill="#3A4148" rx="0"/>
<rect x="971" y="93" width="88" height="22" fill="#22282E" rx="0"/>
<text x="1015.0" y="108.0" font-size="12" text-anchor="middle" font-weight="400" class="t" fill="#E8E2D3">Shuffle</text>
<rect x="1068" y="92" width="94" height="24" fill="#3A4148" rx="0"/>
<rect x="1069" y="93" width="92" height="22" fill="#22282E" rx="0"/>
<text x="1115.0" y="108.0" font-size="12" text-anchor="middle" font-weight="400" class="t" fill="#E8E2D3">Import PNG</text>
<rect x="78" y="128" width="196" height="24" fill="#111519" rx="0" stroke="#3A4148" stroke-width="1"/>
<text x="86" y="145" font-size="12" text-anchor="start" font-weight="400" class="t">Notch</text>
<rect x="132" y="133" width="1.5" height="14" fill="#E8E2D3" style="animation:pulse 1.1s infinite"/>
<rect x="282" y="128" width="84" height="24" fill="#3A4148" rx="0"/>
<rect x="283" y="129" width="82" height="22" fill="#22282E" rx="0"/>
<text x="324.0" y="144.0" font-size="12" text-anchor="middle" font-weight="400" class="t" fill="#E8E2D3">Search</text>
<text x="378" y="145" font-size="11" text-anchor="start" font-weight="400" class="m">Looks any player up through Mojang, not just this server</text>
<rect x="78" y="184" width="176" height="226" fill="#B4AEA1" rx="0"/>
<rect x="79" y="185" width="174" height="224" fill="#22282E" rx="0"/>
<rect x="87" y="193" width="158" height="130" fill="#111519" rx="0"/>
<rect x="134.0" y="225" width="64" height="64" fill="#141420" rx="0"/>
<rect x="134.0" y="225" width="64" height="23.04" fill="#0E0E14" rx="0"/>
<rect x="146.8" y="255.72" width="9.6" height="9.6" fill="#F2F2F6" rx="0"/>
<rect x="175.6" y="255.72" width="9.6" height="9.6" fill="#F2F2F6" rx="0"/>
<rect x="146.8" y="255.72" width="9.6" height="9.6" fill="#B98CFF" rx="0"/>
<rect x="175.6" y="255.72" width="9.6" height="9.6" fill="#B98CFF" rx="0"/>
<text x="88" y="342" font-size="12" text-anchor="start" font-weight="400" class="t">Vex_</text>
<text x="88" y="359" font-size="10.5" text-anchor="start" font-weight="400" class="m">online now</text>
<rect x="87" y="378" width="60" height="23" fill="#D98555" rx="0"/>
<rect x="88" y="379" width="58" height="21" fill="#8E4E32" rx="0"/>
<text x="117.0" y="393.5" font-size="12" text-anchor="middle" font-weight="400" class="t" fill="#E8E2D3">Equip</text>
<rect x="152" y="378" width="48" height="23" fill="#3A4148" rx="0"/>
<rect x="153" y="379" width="46" height="21" fill="#22282E" rx="0"/>
<text x="176.0" y="393.5" font-size="12" text-anchor="middle" font-weight="400" class="t" fill="#E8E2D3">Save</text>
<rect x="205" y="378" width="34" height="23" fill="#3A4148" rx="0"/>
<rect x="206" y="379" width="32" height="21" fill="#22282E" rx="0"/>
<text x="222.0" y="393.5" font-size="12" text-anchor="middle" font-weight="400" class="t" fill="#E8E2D3">⚙</text>
<rect x="274" y="184" width="176" height="226" fill="#B4AEA1" rx="0"/>
<rect x="275" y="185" width="174" height="224" fill="#22282E" rx="0"/>
<rect x="283" y="193" width="158" height="130" fill="#111519" rx="0"/>
<rect x="330.0" y="225" width="64" height="64" fill="#D89A78" rx="0"/>
<rect x="330.0" y="225" width="64" height="23.04" fill="#5A1E14" rx="0"/>
<rect x="342.8" y="255.72" width="9.6" height="9.6" fill="#F2F2F6" rx="0"/>
<rect x="371.6" y="255.72" width="9.6" height="9.6" fill="#F2F2F6" rx="0"/>
<text x="284" y="342" font-size="12" text-anchor="start" font-weight="400" class="t">Kai0</text>
<text x="284" y="359" font-size="10.5" text-anchor="start" font-weight="400" class="m">online now</text>
<rect x="283" y="378" width="60" height="23" fill="#D98555" rx="0"/>
<rect x="284" y="379" width="58" height="21" fill="#8E4E32" rx="0"/>
<text x="313.0" y="393.5" font-size="12" text-anchor="middle" font-weight="400" class="t" fill="#E8E2D3">Equip</text>
<rect x="348" y="378" width="48" height="23" fill="#3A4148" rx="0"/>
<rect x="349" y="379" width="46" height="21" fill="#22282E" rx="0"/>
<text x="372.0" y="393.5" font-size="12" text-anchor="middle" font-weight="400" class="t" fill="#E8E2D3">Save</text>
<rect x="401" y="378" width="34" height="23" fill="#3A4148" rx="0"/>
<rect x="402" y="379" width="32" height="21" fill="#22282E" rx="0"/>
<text x="418.0" y="393.5" font-size="12" text-anchor="middle" font-weight="400" class="t" fill="#E8E2D3">⚙</text>
<rect x="470" y="184" width="176" height="226" fill="#B4AEA1" rx="0"/>
<rect x="471" y="185" width="174" height="224" fill="#22282E" rx="0"/>
<rect x="479" y="193" width="158" height="130" fill="#111519" rx="0"/>
<rect x="526.0" y="225" width="64" height="64" fill="#D8B48C" rx="0"/>
<rect x="526.0" y="225" width="64" height="23.04" fill="#2A1C48" rx="0"/>
<rect x="538.8" y="255.72" width="9.6" height="9.6" fill="#F2F2F6" rx="0"/>
<rect x="567.6" y="255.72" width="9.6" height="9.6" fill="#F2F2F6" rx="0"/>
<text x="480" y="342" font-size="12" text-anchor="start" font-weight="400" class="t">Nova</text>
<text x="480" y="359" font-size="10.5" text-anchor="start" font-weight="400" class="m">online now</text>
<rect x="479" y="378" width="60" height="23" fill="#D98555" rx="0"/>
<rect x="480" y="379" width="58" height="21" fill="#8E4E32" rx="0"/>
<text x="509.0" y="393.5" font-size="12" text-anchor="middle" font-weight="400" class="t" fill="#E8E2D3">Equip</text>
<rect x="544" y="378" width="48" height="23" fill="#3A4148" rx="0"/>
<rect x="545" y="379" width="46" height="21" fill="#22282E" rx="0"/>
<text x="568.0" y="393.5" font-size="12" text-anchor="middle" font-weight="400" class="t" fill="#E8E2D3">Save</text>
<rect x="597" y="378" width="34" height="23" fill="#3A4148" rx="0"/>
<rect x="598" y="379" width="32" height="21" fill="#22282E" rx="0"/>
<text x="614.0" y="393.5" font-size="12" text-anchor="middle" font-weight="400" class="t" fill="#E8E2D3">⚙</text>
<rect x="666" y="184" width="176" height="226" fill="#B4AEA1" rx="0"/>
<rect x="667" y="185" width="174" height="224" fill="#22282E" rx="0"/>
<rect x="675" y="193" width="158" height="130" fill="#111519" rx="0"/>
<rect x="722.0" y="225" width="64" height="64" fill="#B89880" rx="0"/>
<rect x="722.0" y="225" width="64" height="23.04" fill="#2A2A2E" rx="0"/>
<rect x="734.8" y="255.72" width="9.6" height="9.6" fill="#F2F2F6" rx="0"/>
<rect x="763.6" y="255.72" width="9.6" height="9.6" fill="#F2F2F6" rx="0"/>
<text x="676" y="342" font-size="12" text-anchor="start" font-weight="400" class="t">Pyx</text>
<text x="676" y="359" font-size="10.5" text-anchor="start" font-weight="400" class="m">online now</text>
<rect x="675" y="378" width="60" height="23" fill="#D98555" rx="0"/>
<rect x="676" y="379" width="58" height="21" fill="#8E4E32" rx="0"/>
<text x="705.0" y="393.5" font-size="12" text-anchor="middle" font-weight="400" class="t" fill="#E8E2D3">Equip</text>
<rect x="740" y="378" width="48" height="23" fill="#3A4148" rx="0"/>
<rect x="741" y="379" width="46" height="21" fill="#22282E" rx="0"/>
<text x="764.0" y="393.5" font-size="12" text-anchor="middle" font-weight="400" class="t" fill="#E8E2D3">Save</text>
<rect x="793" y="378" width="34" height="23" fill="#3A4148" rx="0"/>
<rect x="794" y="379" width="32" height="21" fill="#22282E" rx="0"/>
<text x="810.0" y="393.5" font-size="12" text-anchor="middle" font-weight="400" class="t" fill="#E8E2D3">⚙</text>
<rect x="862" y="184" width="176" height="226" fill="#B4AEA1" rx="0"/>
<rect x="863" y="185" width="174" height="224" fill="#22282E" rx="0"/>
<rect x="871" y="193" width="158" height="130" fill="#111519" rx="0"/>
<rect x="918.0" y="225" width="64" height="64" fill="#E8C9A8" rx="0"/>
<rect x="918.0" y="225" width="64" height="23.04" fill="#1F5E4A" rx="0"/>
<rect x="930.8" y="255.72" width="9.6" height="9.6" fill="#F2F2F6" rx="0"/>
<rect x="959.6" y="255.72" width="9.6" height="9.6" fill="#F2F2F6" rx="0"/>
<text x="872" y="342" font-size="12" text-anchor="start" font-weight="400" class="t">Halo7</text>
<text x="872" y="359" font-size="10.5" text-anchor="start" font-weight="400" class="m">online now</text>
<rect x="871" y="378" width="60" height="23" fill="#D98555" rx="0"/>
<rect x="872" y="379" width="58" height="21" fill="#8E4E32" rx="0"/>
<text x="901.0" y="393.5" font-size="12" text-anchor="middle" font-weight="400" class="t" fill="#E8E2D3">Equip</text>
<rect x="936" y="378" width="48" height="23" fill="#3A4148" rx="0"/>
<rect x="937" y="379" width="46" height="21" fill="#22282E" rx="0"/>
<text x="960.0" y="393.5" font-size="12" text-anchor="middle" font-weight="400" class="t" fill="#E8E2D3">Save</text>
<rect x="989" y="378" width="34" height="23" fill="#3A4148" rx="0"/>
<rect x="990" y="379" width="32" height="21" fill="#22282E" rx="0"/>
<text x="1006.0" y="393.5" font-size="12" text-anchor="middle" font-weight="400" class="t" fill="#E8E2D3">⚙</text>
<rect x="1166" y="142" width="5" height="480" fill="#252B30" rx="2"/>
<rect x="1166" y="142" width="5" height="190" fill="#D98555" rx="2"/>
<text x="78" y="654" font-size="11.5" text-anchor="start" font-weight="400" class="m">Saved Vex_ to Change Skin.</text>
</svg>
